<svg width="103" height="103" viewBox="0 0 103 103" fill="none" xmlns="http://www.w3.org/2000/svg">
<g clip-path="url(#clip0_177_1293)">
<path d="M2.15729 43.3587C7.62782 23.7944 21.1233 9.59229 34.2415 9.59229C35.2952 9.59229 36.3478 9.684 37.3734 9.86534C37.9549 9.96748 38.4635 10.3093 38.7783 10.8054C39.092 11.3046 39.1806 11.9112 39.0211 12.4781L36.3207 22.1373C36.0602 23.0701 35.1608 23.7006 34.2259 23.6579L34.0112 23.6537C29.1462 23.6537 20.2552 30.945 15.7226 47.1502C15.5434 47.7932 15.3735 48.4509 15.2099 49.1366C20.2979 46.6187 26.3677 46.0361 31.8643 47.5671C44.2644 51.0366 51.5286 63.9453 48.0622 76.3434C45.2524 86.3892 36.0112 93.4074 25.5892 93.4074C23.4662 93.4074 21.3464 93.1145 19.288 92.5382C11.1109 90.2526 4.96291 83.4637 1.97595 73.4263C-0.72023 64.3705 -0.652493 53.4118 2.15729 43.3587Z" fill="#E5EAFF"/>
<path d="M88.3177 9.59521C89.3693 9.59521 90.423 9.68484 91.4475 9.86619C92.028 9.96624 92.5376 10.3102 92.8513 10.8063C93.165 11.3055 93.2536 11.912 93.0952 12.479L90.3938 22.1381C90.1332 23.0709 89.2505 23.7014 88.299 23.6587L88.0864 23.6545C83.2213 23.6545 74.3293 30.9458 69.7967 47.151C69.6164 47.7982 69.4465 48.4559 69.284 49.1375C74.3741 46.6195 80.4418 46.0369 85.9384 47.5679C98.3364 51.0374 105.603 63.9462 102.134 76.3442C99.3244 86.39 90.0832 93.4082 79.6612 93.4082C77.5382 93.4082 75.4184 93.1154 73.359 92.539C65.1829 90.2535 59.0349 83.4646 56.0469 73.4271C53.3518 64.3714 53.4185 53.4116 56.2293 43.3574C61.703 23.7952 75.1964 9.59521 88.3177 9.59521Z" fill="#E5EAFF"/>
</g>
<defs>
<clipPath id="clip0_177_1293">
<rect width="103" height="103" fill="white" transform="matrix(-1 0 0 1 103 0)"/>
</clipPath>
</defs>
</svg>
