<svg width="25" height="25" viewBox="0 0 25 25" fill="none" xmlns="http://www.w3.org/2000/svg">
<path d="M3.61133 1.26953C1.89271 1.26953 0.769043 2.39806 0.769043 3.88136C0.769043 5.3319 1.85924 6.49261 3.54538 6.49261H3.57799C5.33023 6.49261 6.42071 5.3319 6.42071 3.88136C6.38795 2.39806 5.33023 1.26953 3.61133 1.26953Z" fill="white"/>
<path d="M1.06592 8.55664H6.09016V23.6723H1.06592V8.55664Z" fill="white"/>
<path d="M18.4224 8.20117C15.712 8.20117 13.8945 10.7481 13.8945 10.7481V8.55594H8.87012V23.6716H13.8942V15.2304C13.8942 14.7785 13.927 14.3273 14.0597 14.0042C14.4229 13.1018 15.2495 12.167 16.6375 12.167C18.4555 12.167 19.1827 13.5532 19.1827 15.5852V23.6716H24.2065V15.0046C24.2065 10.3617 21.7277 8.20117 18.4224 8.20117Z" fill="white"/>
</svg>
