<svg width="50" height="50" viewBox="0 0 50 50" fill="none" xmlns="http://www.w3.org/2000/svg">
<g clip-path="url(#clip0_177_1151)">
<path d="M30.8933 48.5352H23.6667C23.2622 48.5352 22.9343 48.863 22.9343 49.2676C22.9343 49.6722 23.2622 50 23.6667 50H30.8933C32.5683 50 33.9311 48.6373 33.9311 46.9623C33.9311 45.2873 32.5683 43.9245 30.8933 43.9245H27.8424V38.4979C34.4599 37.1737 39.4612 31.3193 39.4612 24.3181C39.4612 23.1065 38.4756 22.1208 37.264 22.1208C36.0523 22.1208 35.0667 23.1065 35.0667 24.3181C35.0667 28.882 32.0134 32.7457 27.8424 33.9754V31.4348C31.6853 30.2245 34.4799 26.6278 34.4799 22.3905C34.4799 21.0681 34.4799 11.0251 34.4799 9.47978C34.4799 7.71846 33.9932 5.99873 33.0723 4.50693C32.8598 4.16289 32.4086 4.05586 32.0643 4.26846C31.7201 4.48096 31.6133 4.93223 31.8257 5.27637C32.5304 6.41797 32.933 7.71807 33.0028 9.05967H28.3315C27.254 9.05967 26.3774 9.93633 26.3774 11.0138C26.3774 12.0913 27.2541 12.968 28.3315 12.968H33.0149V13.9811H28.3315C27.254 13.9811 26.3774 14.8577 26.3774 15.9352C26.3774 17.0127 27.2541 17.8894 28.3315 17.8894H33.0149V18.9024H28.3315C27.254 18.9024 26.3774 19.7791 26.3774 20.8565C26.3774 21.9341 27.2541 22.8107 28.3315 22.8107H33.0039C32.8119 26.5107 30.0979 29.5491 26.5748 30.2493C21.7565 31.2134 17.2474 27.6497 16.9962 22.8107H21.6686C22.7461 22.8107 23.6227 21.9341 23.6227 20.8565C23.6227 19.7791 22.746 18.9024 21.6686 18.9024H16.9852V17.8894H21.6686C22.7461 17.8894 23.6227 17.0127 23.6227 15.9352C23.6227 14.8577 22.746 13.9811 21.6686 13.9811H16.9852V12.968H21.6686C22.7461 12.968 23.6227 12.0913 23.6227 11.0138C23.6227 9.93633 22.746 9.05967 21.6686 9.05967H16.9962C17.2156 4.83477 20.7217 1.46484 25.0002 1.46484C26.7063 1.46484 28.3347 1.99346 29.7096 2.99346C30.0367 3.23145 30.4947 3.15898 30.7327 2.83203C30.9707 2.50479 30.8983 2.04678 30.5712 1.80879C28.9443 0.625488 27.0179 0 25.0002 0C19.773 0 15.5204 4.25264 15.5204 9.47969V22.3904C15.5204 26.6277 18.315 30.2243 22.1579 31.4347V33.9753C17.9869 32.7456 14.9336 28.8819 14.9336 24.318C14.9336 23.1064 13.9479 22.1207 12.7363 22.1207C11.5247 22.1207 10.5391 23.1064 10.5391 24.318C10.5391 31.3192 15.5404 37.1736 22.1579 38.4978V43.9244H19.107C17.432 43.9244 16.0692 45.2872 16.0692 46.9622C16.0692 48.6372 17.432 50 19.1071 50H20.2487C20.6532 50 20.9812 49.6722 20.9812 49.2676C20.9812 48.863 20.6532 48.5352 20.2487 48.5352H19.1071C18.2398 48.5352 17.5342 47.8295 17.5342 46.9623C17.5342 46.0949 18.2398 45.3894 19.1071 45.3894H30.8933C31.7605 45.3894 32.4662 46.095 32.4662 46.9623C32.4662 47.8295 31.7606 48.5352 30.8933 48.5352ZM28.3317 11.503C28.0619 11.503 27.8425 11.2835 27.8425 11.0137C27.8425 10.7438 28.062 10.5244 28.3317 10.5244H33.0151V11.503H28.3317ZM28.3317 16.4244C28.0619 16.4244 27.8425 16.2049 27.8425 15.9351C27.8425 15.6652 28.062 15.4458 28.3317 15.4458H33.0151V16.4244H28.3317ZM27.8424 20.8563C27.8424 20.5865 28.0619 20.3671 28.3316 20.3671H33.015V21.3457H28.3316C28.0619 21.3457 27.8424 21.1262 27.8424 20.8563ZM21.6687 20.3672C21.9385 20.3672 22.1579 20.5866 22.1579 20.8564C22.1579 21.1263 21.9384 21.3458 21.6687 21.3458H16.9853V20.3672H21.6687ZM21.6687 15.4458C21.9385 15.4458 22.1579 15.6652 22.1579 15.9351C22.1579 16.2049 21.9384 16.4244 21.6687 16.4244H16.9853V15.4458H21.6687ZM22.158 11.0137C22.158 11.2835 21.9385 11.503 21.6688 11.503H16.9854V10.5244H21.6688C21.9385 10.5245 22.158 10.7439 22.158 11.0137ZM23.6229 31.7702C24.085 31.8378 24.5678 31.8701 25.0002 31.8701C25.4723 31.8701 25.9495 31.8327 26.3775 31.7702V34.2898C25.4635 34.4149 24.5377 34.4147 23.6343 34.2915C23.6305 34.291 23.6267 34.2904 23.6228 34.2898V31.7702H23.6229ZM12.0039 24.3181C12.0039 23.9142 12.3324 23.5856 12.7363 23.5856C13.1401 23.5856 13.4688 23.9142 13.4688 24.3181C13.4688 30.8014 18.8328 36.0063 25.2877 35.8458C31.4775 35.6935 36.5315 30.6154 36.5315 24.3181C36.5315 23.9142 36.8602 23.5856 37.264 23.5856C37.6679 23.5856 37.9964 23.9142 37.9964 24.3181C37.9964 30.805 33.219 36.1969 26.9979 37.1607C19.1162 38.3814 12.0039 32.2686 12.0039 24.3181ZM23.6229 38.7137C24.0357 38.7528 24.537 38.7791 25.0002 38.7791C25.4581 38.7791 25.9549 38.7538 26.3775 38.7137V43.9244H23.6228V38.7137H23.6229Z" fill="#8F8953"/>
</g>
<defs>
<clipPath id="clip0_177_1151">
<rect width="50" height="50" fill="white"/>
</clipPath>
</defs>
</svg>
