<svg width="20" height="20" viewBox="0 0 20 20" fill="none" xmlns="http://www.w3.org/2000/svg">
<g clip-path="url(#clip0_177_1180)">
<path d="M17.6271 4.49157L17.6171 4.45311C18.4645 3.94515 19.1487 3.10775 19.4531 2.14844C18.6593 2.62069 17.7307 2.97882 16.7968 3.16406C16.0479 2.36618 15.0488 1.875 13.8672 1.875C11.6026 1.875 9.72656 3.70849 9.72656 5.97655C9.72656 6.32414 9.75524 6.66075 9.79354 6.95554C7.79953 6.80067 5.92576 6.1537 4.21221 5.02638C2.71594 4.0422 1.90936 3.04031 1.90249 3.03176C1.68277 2.75329 1.30298 2.65762 0.977816 2.79907C0.6525 2.94052 0.463291 3.28323 0.51685 3.63372C0.535465 3.75472 0.916933 6.14637 2.35842 8.23026C2.02243 8.17792 1.82193 8.08454 1.78348 8.06546C1.50455 7.90021 1.1626 7.93058 0.908846 8.13291C0.653568 8.33646 0.562321 8.68329 0.664096 8.9935C0.697055 9.09421 1.38263 11.0933 3.88582 12.1527C3.34948 12.3074 2.87371 12.3048 2.86761 12.3048C2.86227 12.3048 2.85693 12.3046 2.85159 12.3046C2.52093 12.3046 2.22537 12.5132 2.11505 12.826C2.00274 13.1439 2.10727 13.4979 2.37399 13.704C2.43426 13.7506 3.55486 14.602 5.37599 15.0323C4.73894 15.3829 3.98699 15.594 3.12579 15.6628C1.93393 15.758 0.975374 15.5322 0.967592 15.5302C0.571323 15.4331 0.16712 15.6571 0.0394041 16.0446C-0.0883114 16.432 0.103796 16.8525 0.480229 17.0098C0.592991 17.0568 3.27257 18.1638 5.93766 18.1638C7.78763 18.1638 9.17328 17.9954 10.4301 17.6176C11.9986 17.1459 13.3302 16.3416 14.5007 15.1588C14.8042 14.8521 14.8016 14.3574 14.4949 14.0539C14.1881 13.7504 13.6935 13.753 13.39 14.0599C11.3028 16.1692 8.90121 16.6015 5.93766 16.6015C5.86824 16.6015 5.79881 16.6006 5.72923 16.5988C6.55595 16.2193 7.26487 15.678 7.83097 14.9873C8.01972 14.7569 8.06122 14.4393 7.93762 14.1682C7.81418 13.8972 7.54731 13.72 7.24961 13.7112C6.43388 13.6872 5.71336 13.531 5.1198 13.337C5.56047 13.1132 5.9897 12.7952 6.32829 12.3437C6.49094 12.1269 6.52955 11.8412 6.43037 11.589C6.33119 11.3368 6.10826 11.154 5.84153 11.1061C4.52989 10.8703 3.65877 10.3424 3.09374 9.82266C3.41082 9.80618 3.75918 9.75812 4.135 9.66427C4.41057 9.5953 4.62709 9.38229 4.70033 9.10779C4.77358 8.83344 4.69225 8.54077 4.48763 8.34378C3.77947 7.66141 3.26479 6.81578 2.8966 6.01805C3.02508 6.11006 3.15905 6.20268 3.29821 6.2953C4.84911 7.32603 7.39945 8.55466 10.7423 8.55466C10.9854 8.55466 11.2146 8.44098 11.3623 8.24796C11.5101 8.05509 11.5596 7.80363 11.4964 7.56895C11.4943 7.56132 11.2892 6.79121 11.2892 5.97655C11.2892 5.30379 11.5576 4.66841 12.0451 4.18761C12.5354 3.70391 13.1825 3.43749 13.8673 3.43749C14.5596 3.43749 15.162 3.70528 15.6578 4.23339C16.0157 4.5703 16.4064 5.46873 16.4064 6.01103V6.48436C16.4064 6.50083 16.408 6.52327 16.412 6.54982C16.4087 6.57972 16.4064 6.60993 16.4064 6.6406C16.4064 8.41657 16.0777 9.99768 15.4294 11.3398C15.2417 11.7285 15.4046 12.1955 15.7931 12.3832C15.9027 12.436 16.0183 12.461 16.1323 12.461C16.4228 12.461 16.7016 12.2984 16.8364 12.0195C17.5879 10.4635 17.9689 8.65384 17.9689 6.6406C17.9689 6.61085 17.9667 6.58155 17.9635 6.55271C17.9672 6.52586 17.9689 6.50267 17.9689 6.48436V5.93748C18.7715 5.3578 19.4511 4.57488 20.0001 3.74999C20 3.74999 18.5598 4.43236 17.6271 4.49157Z" fill="#4C5D77"/>
</g>
<defs>
<clipPath id="clip0_177_1180">
<rect width="20" height="20" fill="white"/>
</clipPath>
</defs>
</svg>
