<svg width="30" height="30" viewBox="0 0 30 30" fill="none" xmlns="http://www.w3.org/2000/svg">
<path d="M8.79761 21.72C9.28131 21.2274 9.2749 20.4364 8.78326 19.9518C4.73114 15.9692 2.5 12.435 2.5 10C2.5 6.8988 5.02319 4.375 8.125 4.375C11.2268 4.375 13.75 6.8988 13.75 10C13.75 10.69 14.31 11.25 15 11.25C15.69 11.25 16.25 10.69 16.25 10C16.25 6.8988 18.7732 4.375 21.875 4.375C24.9768 4.375 27.5 6.8988 27.5 10C27.5 14.8795 19.0775 22.2443 15.0043 25.318C14.4214 24.8737 13.5294 24.1757 12.4857 23.2993C11.9568 22.8555 11.1688 22.9239 10.7251 23.4525C10.2808 23.9813 10.3494 24.7693 10.878 25.213C12.8036 26.8307 14.2111 27.847 14.27 27.8894C14.4882 28.0469 14.7437 28.125 15 28.125C15.2557 28.125 15.5118 28.0469 15.73 27.89C17.1906 26.8387 30 17.4081 30 10C30 5.52002 26.355 1.875 21.875 1.875C18.9838 1.875 16.4407 3.39325 15 5.67383C13.5593 3.39325 11.0162 1.875 8.125 1.875C3.64502 1.875 0 5.52002 0 10C0 13.2007 2.36511 17.1487 7.03003 21.7349C7.52197 22.2186 8.31451 22.2119 8.79761 21.72Z" fill="#FF9900"/>
</svg>
