<svg width="35" height="35" viewBox="0 0 35 35" fill="none" xmlns="http://www.w3.org/2000/svg">
<path d="M29.8744 5.12559C26.569 1.82034 22.1744 0 17.5 0C12.8256 0 8.43097 1.82034 5.12559 5.12559C1.82034 8.43097 0 12.8256 0 17.5C0 22.1744 1.82034 26.569 5.12559 29.8744C8.43097 33.1797 12.8256 35 17.5 35C20.7001 35 23.8312 34.1279 26.555 32.478C27.2008 32.0867 27.4073 31.246 27.016 30.6003C26.6247 29.9543 25.784 29.748 25.1383 30.1392C22.8419 31.5304 20.2005 32.2656 17.5 32.2656C9.35819 32.2656 2.73438 25.6418 2.73438 17.5C2.73438 9.35819 9.35819 2.73438 17.5 2.73438C25.6418 2.73438 32.2656 9.35819 32.2656 17.5C32.2656 20.4114 31.3999 23.2452 29.7619 25.6952C29.3422 26.3229 29.5109 27.172 30.1386 27.5916C30.7664 28.0114 31.6154 27.8426 32.035 27.215C33.9747 24.3137 35 20.9542 35 17.5C35 12.8256 33.1797 8.43097 29.8744 5.12559Z" fill="white"/>
<path d="M16.0415 10.3511C15.0785 9.79233 13.9277 9.79041 12.9631 10.346C11.995 10.9035 11.417 11.9045 11.417 13.0236V21.9763C11.417 23.0954 11.995 24.0964 12.9631 24.6538C13.444 24.9308 13.9709 25.0692 14.498 25.0692C15.0282 25.0692 15.5586 24.9289 16.0415 24.6487L23.7557 20.1724C24.7182 19.6138 25.2929 18.6148 25.2929 17.4999C25.2929 16.385 24.7182 15.386 23.7557 14.8274L16.0415 10.3511ZM22.3833 17.8073L14.6691 22.2836C14.5281 22.3656 14.4056 22.3291 14.3277 22.2843C14.2472 22.238 14.1514 22.1469 14.1514 21.9762V13.0236C14.1514 12.8529 14.2472 12.7619 14.3277 12.7155C14.3719 12.6901 14.4303 12.6674 14.4984 12.6674C14.5504 12.6674 14.608 12.6807 14.6691 12.7162L22.3833 17.1925C22.5282 17.2765 22.5586 17.406 22.5586 17.4999C22.5586 17.5938 22.5282 17.7233 22.3833 17.8073Z" fill="white"/>
</svg>
