<svg width="25" height="25" viewBox="0 0 25 25" fill="none" xmlns="http://www.w3.org/2000/svg">
<g clip-path="url(#clip0_178_2130)">
<path d="M24.6595 11.678L17.22 4.23838C16.766 3.78447 16.0299 3.78447 15.576 4.23838C15.122 4.69238 15.122 5.42834 15.576 5.88234L21.0312 11.3375H1.16244C0.520492 11.3375 0 11.858 0 12.5C0 13.1418 0.520492 13.6624 1.16244 13.6624H21.0312L15.5762 19.1176C15.1222 19.5716 15.1222 20.3075 15.5762 20.7615C15.8031 20.9883 16.1007 21.102 16.3982 21.102C16.6956 21.102 16.9931 20.9883 17.2201 20.7615L24.6595 13.3219C25.1135 12.8679 25.1135 12.132 24.6595 11.678Z" fill="#10277B"/>
</g>
<defs>
<clipPath id="clip0_178_2130">
<rect width="25" height="25" fill="white"/>
</clipPath>
</defs>
</svg>
