<svg width="40" height="40" viewBox="0 0 40 40" fill="none" xmlns="http://www.w3.org/2000/svg">
<g clip-path="url(#clip0_177_1260)">
<path d="M0.837397 16.8383C2.96187 9.24048 8.20285 3.7251 13.2973 3.7251C13.7065 3.7251 14.1153 3.76071 14.5135 3.83114C14.7394 3.8708 14.9369 4.00356 15.0591 4.19621C15.181 4.39008 15.2154 4.62564 15.1534 4.84582L14.1048 8.59695C14.0036 8.95919 13.6543 9.20406 13.2912 9.18746L13.2079 9.18584C11.3185 9.18584 7.8657 12.0174 6.10549 18.3107C6.03587 18.5604 5.9699 18.8158 5.90635 19.0821C7.88229 18.1043 10.2395 17.878 12.3741 18.4726C17.1897 19.82 20.0107 24.8331 18.6646 29.6479C17.5734 33.5491 13.9846 36.2747 9.93716 36.2747C9.1127 36.2747 8.28946 36.1609 7.4901 35.9371C4.31452 35.0495 1.92696 32.413 0.766973 28.515C-0.280088 24.9982 -0.253782 20.7424 0.837397 16.8383Z" fill="#10277B"/>
<path d="M34.2981 3.72607C34.7065 3.72607 35.1157 3.76088 35.5136 3.83131C35.739 3.87016 35.9369 4.00373 36.0588 4.19638C36.1806 4.39025 36.215 4.62581 36.1535 4.84599L35.1044 8.59711C35.0032 8.95936 34.6604 9.20422 34.2909 9.18763L34.2083 9.18601C32.319 9.18601 28.8657 12.0176 27.1055 18.3109C27.0355 18.5622 26.9695 18.8176 26.9064 19.0823C28.8831 18.1044 31.2395 17.8782 33.3741 18.4728C38.1889 19.8201 41.0108 24.8332 39.6638 29.648C38.5726 33.5493 34.9838 36.2748 30.9364 36.2748C30.1119 36.2748 29.2887 36.1611 28.4889 35.9373C25.3137 35.0497 22.9262 32.4132 21.7658 28.5152C20.7191 24.9984 20.745 20.7421 21.8366 16.8376C23.9623 9.24065 29.2025 3.72607 34.2981 3.72607Z" fill="#10277B"/>
</g>
<defs>
<clipPath id="clip0_177_1260">
<rect width="40" height="40" fill="white" transform="matrix(-1 0 0 1 40 0)"/>
</clipPath>
</defs>
</svg>
