<svg width="16" height="16" viewBox="0 0 16 16" fill="none" xmlns="http://www.w3.org/2000/svg">
<g clip-path="url(#clip0_0_10)">
<path d="M15.7821 7.47384L11.0208 2.7125C10.7303 2.422 10.2591 2.422 9.96863 2.7125C9.67807 3.00307 9.67807 3.47408 9.96863 3.76464L13.4599 7.25595H0.743959C0.333115 7.25595 0 7.58907 0 7.99991C0 8.4107 0.333115 8.74387 0.743959 8.74387H13.4599L9.96875 12.2352C9.67819 12.5257 9.67819 12.9968 9.96875 13.2873C10.114 13.4325 10.3044 13.5052 10.4948 13.5052C10.6852 13.5052 10.8756 13.4325 11.0209 13.2873L15.7821 8.52598C16.0727 8.23542 16.0727 7.7644 15.7821 7.47384Z" fill="#10277B"/>
</g>
<defs>
<clipPath id="clip0_0_10">
<rect width="16" height="16" fill="white"/>
</clipPath>
</defs>
</svg>
