<svg width="50" height="50" viewBox="0 0 50 50" fill="none" xmlns="http://www.w3.org/2000/svg">
<g clip-path="url(#clip0_177_1395)">
<path d="M42.1875 22.9165C41.6312 22.9165 41.0854 22.977 40.5583 23.0874C39.8562 15.9853 33.8458 10.4165 26.5625 10.4165C25.7 10.4165 25 11.1165 25 11.979V36.9791C25 37.8416 25.7 38.5416 26.5625 38.5416H42.1875C46.4979 38.5416 50 35.0395 50 30.7291C50 26.4228 46.4979 22.9165 42.1875 22.9165Z" fill="white"/>
<path d="M18.75 15.104V36.979C18.75 37.8415 19.45 38.5415 20.3125 38.5415C21.175 38.5415 21.875 37.8415 21.875 36.979V15.104C21.875 14.2415 21.175 13.5415 20.3125 13.5415C19.45 13.5415 18.75 14.2415 18.75 15.104Z" fill="white"/>
<path d="M12.5 21.354V36.9789C12.5 37.8414 13.2 38.5414 14.0625 38.5414C14.925 38.5414 15.625 37.8414 15.625 36.9789V21.354C15.625 20.4915 14.925 19.7915 14.0625 19.7915C13.2 19.7915 12.5 20.4915 12.5 21.354Z" fill="white"/>
<path d="M6.25 36.9789C6.25 37.8414 6.95 38.5414 7.8125 38.5414C8.675 38.5414 9.375 37.8414 9.375 36.9789V21.354C9.375 20.4915 8.675 19.7915 7.8125 19.7915C6.95 19.7915 6.25 20.4915 6.25 21.354V36.9789Z" fill="white"/>
<path d="M1.5625 38.5415C2.425 38.5415 3.125 37.8415 3.125 36.979V27.604C3.125 26.7415 2.425 26.0415 1.5625 26.0415C0.7 26.0415 0 26.7415 0 27.604V36.979C0 37.8415 0.7 38.5415 1.5625 38.5415Z" fill="white"/>
</g>
<defs>
<clipPath id="clip0_177_1395">
<rect width="50" height="50" fill="white"/>
</clipPath>
</defs>
</svg>
