<svg width="18" height="20" viewBox="0 0 18 20" fill="none" xmlns="http://www.w3.org/2000/svg">
<g clip-path="url(#clip0_177_1370)">
<path d="M14.1467 3.4249C13.0682 1.33021 11.1525 0.0504882 9.02217 0.00158203C8.93123 -0.000527343 8.8397 -0.000527343 8.74872 0.00158203C6.61844 0.0504882 4.70274 1.33021 3.62416 3.4249C2.52171 5.56599 2.49155 8.13786 3.54346 10.3047L7.95033 19.3823C7.95231 19.3863 7.95428 19.3904 7.95633 19.3943C8.15022 19.7736 8.49756 20 8.88551 20C9.27343 20 9.62077 19.7736 9.81463 19.3943C9.81667 19.3904 9.81865 19.3863 9.82063 19.3823L14.2275 10.3047C15.2793 8.13786 15.2492 5.56599 14.1467 3.4249ZM8.88545 9.06251C7.50743 9.06251 6.38634 7.80083 6.38634 6.25001C6.38634 4.6992 7.50743 3.43752 8.88545 3.43752C10.2635 3.43752 11.3846 4.6992 11.3846 6.25001C11.3846 7.80083 10.2635 9.06251 8.88545 9.06251Z" fill="#4C5D77"/>
</g>
<defs>
<clipPath id="clip0_177_1370">
<rect width="17.7714" height="20" fill="white"/>
</clipPath>
</defs>
</svg>
