<svg width="30" height="30" viewBox="0 0 30 30" fill="none" xmlns="http://www.w3.org/2000/svg">
<g clip-path="url(#clip0_178_2123)">
<path d="M0.659048 10.4309L12.296 17.7808L19.6459 29.4174C19.8769 29.7833 20.2776 30 20.7028 30C20.7595 30 20.8178 29.9964 20.8752 29.9881C21.3607 29.9207 21.7627 29.5752 21.9022 29.1043L30.0275 1.60293C30.0431 1.54922 30.0495 1.4949 30.0581 1.44118C30.0611 1.42257 30.0663 1.40548 30.0688 1.38686C30.0825 1.26631 30.0758 1.14789 30.055 1.03192C30.0514 1.00934 30.0462 0.987364 30.0407 0.96478C30.0126 0.84545 29.9699 0.731004 29.9094 0.625408C29.9064 0.620525 29.9064 0.615031 29.903 0.609843C29.8792 0.570474 29.8511 0.535377 29.8237 0.499364C29.8106 0.481663 29.7999 0.463046 29.7855 0.446261C29.737 0.38797 29.6842 0.335477 29.6274 0.287867C29.6131 0.275965 29.5975 0.267419 29.5826 0.256127C29.5362 0.22103 29.4886 0.18807 29.4382 0.159992C29.4163 0.147479 29.3931 0.137408 29.3699 0.126726C29.3207 0.102921 29.2707 0.0824737 29.2194 0.0647726C29.2069 0.0605 29.1956 0.0534806 29.1825 0.0498183C29.1706 0.046156 29.1587 0.046156 29.1474 0.0431041C29.0924 0.0284549 29.0369 0.0186888 28.9804 0.0110591C28.9588 0.00861754 28.9368 0.00434487 28.9148 0.00220854C28.8474 -0.00145375 28.7793 -0.000843377 28.7113 0.00617601C28.703 0.0067864 28.6942 0.00617601 28.6856 0.0067864C28.6148 0.0147214 28.5437 0.0293705 28.4738 0.0498183L0.972479 8.17522C0.50157 8.31469 0.156094 8.71601 0.0886469 9.20218C0.0208946 9.68774 0.244294 10.1684 0.659048 10.4309ZM24.4685 3.83998L19.1939 9.1152C18.7056 9.60351 18.7056 10.3949 19.1939 10.8829C19.6813 11.3712 20.4739 11.3712 20.9616 10.8829L26.2368 5.60765L20.2859 25.7493L14.7924 17.052L17.2114 14.6331C17.6994 14.1451 17.6994 13.3537 17.2114 12.8654C16.7237 12.3774 15.9311 12.3774 15.4437 12.8654L13.0248 15.2837L4.32744 9.7909L24.4685 3.83998Z" fill="#FB5392"/>
</g>
<defs>
<clipPath id="clip0_178_2123">
<rect width="30" height="30" fill="white"/>
</clipPath>
</defs>
</svg>
