<svg width="56" height="56" viewBox="0 0 56 56" fill="none" xmlns="http://www.w3.org/2000/svg">
<g clip-path="url(#clip0_177_1091)">
<path d="M29.6775 16.493L21.1338 21.8568C20.3808 22.3296 20.1536 23.3231 20.6264 24.0762C21.0991 24.8292 22.0926 25.0564 22.8457 24.5836L31.3894 19.2198C32.1429 18.7467 32.3697 17.7535 31.8969 17.0005C31.424 16.2474 30.4306 16.0203 29.6775 16.493Z" fill="white"/>
<path d="M37.0864 21.0286L25.2707 28.4466C24.5176 28.9194 24.2904 29.9129 24.7632 30.666C25.236 31.419 26.2295 31.6462 26.9825 31.1734L38.7983 23.7554C39.5513 23.2827 39.7785 22.2892 39.3057 21.5361C38.833 20.783 37.8394 20.5559 37.0864 21.0286Z" fill="white"/>
<path d="M33.7661 2.0145L9.63465 17.1644C8.88164 17.6371 8.65442 18.6306 9.12721 19.3837L17.2014 32.2447L14.7929 33.7568C11.9612 35.5346 11.1041 39.2849 12.8816 42.1161L17.6462 49.7055C19.424 52.5372 23.1738 53.3946 26.0055 51.6168C26.2372 51.4713 26.4557 51.3126 26.6601 51.1425L49.1541 37.0206C52.5116 34.9128 53.5287 30.4658 51.4206 27.1079L35.9854 2.52194C35.5126 1.76886 34.5192 1.54171 33.7661 2.0145ZM25.1901 44.9693C25.9237 46.1377 25.7004 47.6401 24.7314 48.5518L24.2652 48.8446L24.2937 48.89C22.9653 49.7239 21.2066 49.3214 20.3729 47.9935L15.6083 40.4042C14.7747 39.0763 15.1769 37.3171 16.5048 36.4835L18.9134 34.9713L25.1902 44.9693L25.1901 44.9693ZM48.6939 28.8196C49.8383 30.6425 49.2655 33.1492 47.4422 34.2938L28.8237 45.9827C28.748 45.0437 28.4515 44.1091 27.9168 43.2575L12.7099 19.0351L34.1146 5.5971L48.6939 28.8196Z" fill="white"/>
<path d="M37.6949 29.2641L29.1512 34.6279C28.3981 35.1006 28.1709 36.0941 28.6437 36.8472C29.1165 37.6002 30.11 37.8274 30.863 37.3546L39.4068 31.9908C40.1603 31.5178 40.387 30.5246 39.9142 29.7715C39.4414 29.0185 38.4479 28.7913 37.6949 29.2641Z" fill="white"/>
</g>
<defs>
<clipPath id="clip0_177_1091">
<rect width="40" height="40" fill="white" transform="translate(0 21.5981) scale(1.0155) rotate(-32.1209)"/>
</clipPath>
</defs>
</svg>
