<svg width="147" height="24" viewBox="0 0 147 24" fill="none" xmlns="http://www.w3.org/2000/svg">
<path d="M20.2681 1.43999L21.9601 3.13199C22.4281 3.59999 22.4281 4.35599 21.9601 4.82399L16.8001 9.99599V21.6H3.6001V3.59999H16.4041L18.5641 1.43999C19.0441 0.971987 19.8001 0.959987 20.2681 1.43999ZM13.4761 11.616L19.9201 5.18399L18.2161 3.47999L11.7841 9.92399L10.9321 12.468L13.4761 11.616Z" fill="#8F8953"/>
<path d="M39.7861 20.9999V4.07992H47.5381C49.3461 4.07992 50.7381 4.47192 51.7141 5.25592C52.7061 6.03992 53.2021 7.11192 53.2021 8.47192C53.2021 9.36792 52.9781 10.1439 52.5301 10.7999C52.0821 11.4399 51.4581 11.9199 50.6581 12.2399C51.6181 12.5119 52.3541 12.9919 52.8661 13.6799C53.3941 14.3679 53.6581 15.2159 53.6581 16.2239C53.6581 17.7279 53.1301 18.9039 52.0741 19.7519C51.0341 20.5839 49.6101 20.9999 47.8021 20.9999H39.7861ZM43.3381 11.0399H46.8901C48.7141 11.0399 49.6261 10.3359 49.6261 8.92792C49.6261 7.53592 48.7141 6.83992 46.8901 6.83992H43.3381V11.0399ZM43.3381 18.2399H47.2981C48.2581 18.2399 48.9621 18.0559 49.4101 17.6879C49.8581 17.3199 50.0821 16.7599 50.0821 16.0079C50.0821 15.2719 49.8581 14.7199 49.4101 14.3519C48.9621 13.9839 48.2581 13.7999 47.2981 13.7999H43.3381V18.2399Z" fill="#8F8953"/>
<path d="M56.4736 20.9999V4.07992H60.1936V17.8559H68.0176V20.9999H56.4736Z" fill="#8F8953"/>
<path d="M77.1419 21.2639C75.4779 21.2639 74.0139 20.9039 72.7499 20.1839C71.5019 19.4479 70.5259 18.4319 69.8219 17.1359C69.1339 15.8239 68.7899 14.2879 68.7899 12.5279C68.7899 10.7679 69.1339 9.23992 69.8219 7.94392C70.5259 6.63192 71.5019 5.61592 72.7499 4.89592C73.9979 4.17592 75.4619 3.81592 77.1419 3.81592C78.8219 3.81592 80.2859 4.17592 81.5339 4.89592C82.7979 5.61592 83.7739 6.63192 84.4619 7.94392C85.1659 9.23992 85.5179 10.7599 85.5179 12.5039C85.5179 14.2639 85.1659 15.7999 84.4619 17.1119C83.7739 18.4239 82.7979 19.4479 81.5339 20.1839C80.2859 20.9039 78.8219 21.2639 77.1419 21.2639ZM77.1419 18.0959C78.5499 18.0959 79.6459 17.6079 80.4299 16.6319C81.2299 15.6399 81.6299 14.2719 81.6299 12.5279C81.6299 10.7679 81.2379 9.40792 80.4539 8.44792C79.6699 7.47192 78.5659 6.98392 77.1419 6.98392C75.7499 6.98392 74.6539 7.47192 73.8539 8.44792C73.0699 9.40792 72.6779 10.7679 72.6779 12.5279C72.6779 14.2719 73.0699 15.6399 73.8539 16.6319C74.6539 17.6079 75.7499 18.0959 77.1419 18.0959Z" fill="#8F8953"/>
<path d="M96.7715 21.2639C94.8675 21.2639 93.2515 20.9039 91.9235 20.1839C90.6115 19.4639 89.6115 18.4559 88.9235 17.1599C88.2355 15.8639 87.8915 14.3439 87.8915 12.5999C87.8915 10.8079 88.2435 9.25592 88.9475 7.94392C89.6675 6.63192 90.6995 5.61592 92.0435 4.89592C93.3875 4.17592 95.0035 3.81592 96.8915 3.81592C98.0755 3.81592 99.1955 3.98392 100.252 4.31992C101.324 4.65592 102.196 5.10392 102.868 5.66392L101.668 8.56792C100.932 8.02392 100.18 7.63992 99.4115 7.41592C98.6435 7.17592 97.8115 7.05592 96.9155 7.05592C95.2035 7.05592 93.9155 7.53592 93.0515 8.49592C92.2035 9.43992 91.7795 10.8079 91.7795 12.5999C91.7795 14.4079 92.2115 15.7759 93.0755 16.7039C93.9555 17.6319 95.2515 18.0959 96.9635 18.0959C97.8755 18.0959 98.8355 17.9519 99.8435 17.6639V14.3519H96.1955V11.6639H102.916V19.9679C102.084 20.3839 101.124 20.7039 100.036 20.9279C98.9475 21.1519 97.8595 21.2639 96.7715 21.2639Z" fill="#8F8953"/>
<path d="M112.256 21.2639C110.928 21.2639 109.672 21.0959 108.488 20.7599C107.32 20.4239 106.344 19.9679 105.56 19.3919L106.64 16.4639C107.392 16.9919 108.248 17.4079 109.208 17.7119C110.184 18.0159 111.2 18.1679 112.256 18.1679C113.408 18.1679 114.232 17.9919 114.728 17.6399C115.24 17.2719 115.496 16.8159 115.496 16.2719C115.496 15.8079 115.32 15.4399 114.968 15.1679C114.616 14.8959 114 14.6639 113.12 14.4719L110.408 13.8959C107.384 13.2559 105.872 11.6879 105.872 9.19192C105.872 8.11992 106.16 7.18392 106.736 6.38392C107.312 5.56792 108.112 4.93592 109.136 4.48792C110.176 4.03992 111.376 3.81592 112.736 3.81592C113.904 3.81592 115 3.98392 116.024 4.31992C117.048 4.65592 117.896 5.12792 118.568 5.73592L117.488 8.47192C116.176 7.43192 114.584 6.91192 112.712 6.91192C111.704 6.91192 110.92 7.11192 110.36 7.51192C109.816 7.89592 109.544 8.39992 109.544 9.02392C109.544 9.48792 109.712 9.86392 110.048 10.1519C110.384 10.4399 110.968 10.6719 111.8 10.8479L114.512 11.4239C117.616 12.0959 119.168 13.6159 119.168 15.9839C119.168 17.0399 118.88 17.9679 118.304 18.7679C117.744 19.5519 116.944 20.1679 115.904 20.6159C114.88 21.0479 113.664 21.2639 112.256 21.2639Z" fill="#8F8953"/>
<path d="M121.583 20.9999V4.07992H125.303V17.8559H133.127V20.9999H121.583Z" fill="#8F8953"/>
<path d="M136.489 20.9999V13.3679L129.961 4.07992H134.281L138.409 10.0319L142.537 4.07992H146.689L140.209 13.3919V20.9999H136.489Z" fill="#8F8953"/>
</svg>
