<svg width="20" height="20" viewBox="0 0 20 20" fill="none" xmlns="http://www.w3.org/2000/svg">
<path d="M10.1968 20C10.1306 20 10.0644 20 9.99771 19.9996C8.43002 20.0035 6.98151 19.9636 5.57281 19.8779C4.28131 19.7993 3.10242 19.353 2.16339 18.5873C1.25732 17.8485 0.63858 16.8495 0.324402 15.6184C0.0509644 14.5466 0.0364685 13.4945 0.022583 12.4769C0.0125122 11.7468 0.00213623 10.8816 0 10.0018C0.00213623 9.1183 0.0125122 8.25312 0.022583 7.52299C0.0364685 6.50553 0.0509644 5.45344 0.324402 4.38151C0.63858 3.15043 1.25732 2.15143 2.16339 1.4126C3.10242 0.646917 4.28131 0.200597 5.57297 0.122014C6.98166 0.0364124 8.43048 -0.00356563 10.0015 0.000249067C11.5697 -0.00310787 13.0177 0.0364124 14.4264 0.122014C15.7179 0.200597 16.8968 0.646917 17.8358 1.4126C18.7421 2.15143 19.3607 3.15043 19.6748 4.38151C19.9483 5.45329 19.9628 6.50553 19.9767 7.52299C19.9867 8.25312 19.9973 9.1183 19.9992 9.99812C19.9973 10.8816 19.9867 11.7468 19.9767 12.4769C19.9709 12.9084 19.6144 13.2533 19.1849 13.2475C18.7534 13.2415 18.4085 12.8869 18.4143 12.4555C18.4242 11.7297 18.4348 10.8702 18.4367 9.99812C18.4348 9.12974 18.4242 8.27021 18.4143 7.54435C18.4016 6.61799 18.3885 5.66004 18.1609 4.76786C17.9312 3.8679 17.4896 3.14646 16.8484 2.62354C16.1549 2.0579 15.3081 1.74097 14.3315 1.68162C12.9559 1.598 11.5399 1.55939 10.0015 1.5626C8.45947 1.55894 7.0433 1.598 5.66772 1.68162C4.69116 1.74097 3.84445 2.0579 3.15079 2.62339C2.50961 3.14631 2.06802 3.86774 1.83838 4.76786C1.61072 5.66004 1.5976 6.61799 1.58493 7.54435C1.57501 8.27021 1.56464 9.12974 1.5625 10.0018C1.56464 10.8702 1.57501 11.7297 1.58493 12.4555C1.5976 13.3819 1.61072 14.3399 1.83838 15.232C2.06802 16.132 2.50961 16.8534 3.15079 17.3764C3.84445 17.942 4.69116 18.2589 5.66772 18.3183C7.0433 18.4019 8.45978 18.441 9.99786 18.4371C11.5401 18.4408 12.9559 18.4019 14.3315 18.3183C15.3081 18.2589 16.1548 17.942 16.8484 17.3764C17.3103 16.9996 17.6712 16.5162 17.921 15.9394C18.0925 15.5436 18.5524 15.3616 18.9484 15.5331C19.3443 15.7046 19.5262 16.1645 19.3549 16.5605C19.0047 17.369 18.4937 18.0509 17.8358 18.5873C16.8968 19.3531 15.7179 19.7993 14.4264 19.8779C13.0774 19.96 11.6916 20 10.1968 20ZM14.8433 9.99995C14.8433 7.30753 12.6529 5.11713 9.96048 5.11713C7.26822 5.11713 5.07767 7.30753 5.07767 9.99995C5.07767 12.6924 7.26822 14.8828 9.96048 14.8828C12.6529 14.8828 14.8433 12.6924 14.8433 9.99995ZM13.2808 9.99995C13.2808 11.8307 11.7914 13.3203 9.96048 13.3203C8.12973 13.3203 6.64017 11.8307 6.64017 9.99995C6.64017 8.1692 8.12973 6.67963 9.96048 6.67963C11.7914 6.67963 13.2808 8.1692 13.2808 9.99995ZM15.3902 3.55463C14.743 3.55463 14.2183 4.07923 14.2183 4.72651C14.2183 5.37379 14.743 5.89838 15.3902 5.89838C16.0374 5.89838 16.562 5.37379 16.562 4.72651C16.562 4.07923 16.0374 3.55463 15.3902 3.55463Z" fill="#4C5D77"/>
</svg>
