<svg width="50" height="50" viewBox="0 0 50 50" fill="none" xmlns="http://www.w3.org/2000/svg">
<g clip-path="url(#clip0_177_1401)">
<path d="M36.8174 34.8294C30.084 30.394 21.6195 29.3169 11.659 31.6377C9.65905 32.1023 10.334 35.1377 12.3674 34.6815C28.3924 30.9565 34.3403 37.6981 35.957 37.6981C37.5028 37.6961 38.1091 35.6815 36.8174 34.8294Z" fill="white"/>
<path d="M10.9515 26.8668C19.9119 24.746 30.0848 25.9793 37.5015 30.0793C39.3057 31.0772 40.8182 28.3418 39.014 27.346C30.9411 22.8835 19.9161 21.5377 10.2328 23.8273C8.22443 24.3002 8.93485 27.3398 10.9515 26.8668Z" fill="white"/>
<path d="M9.76899 18.7375C19.2065 15.85 32.4461 17.4334 39.9127 22.3417C41.6273 23.4688 43.3586 20.8667 41.6294 19.7313C33.3377 14.2792 19.2502 12.5688 8.8544 15.7479C6.87107 16.3542 7.8044 19.3438 9.76899 18.7375Z" fill="white"/>
<path d="M25 50C38.7854 50 50 38.7854 50 25C50 11.2146 38.7854 0 25 0C11.2146 0 0 11.2146 0 25C0 38.7854 11.2146 50 25 50ZM25 3.125C37.0625 3.125 46.875 12.9375 46.875 25C46.875 37.0625 37.0625 46.875 25 46.875C12.9375 46.875 3.125 37.0625 3.125 25C3.125 12.9375 12.9375 3.125 25 3.125Z" fill="white"/>
</g>
<defs>
<clipPath id="clip0_177_1401">
<rect width="50" height="50" fill="white"/>
</clipPath>
</defs>
</svg>
