<svg width="62" height="62" viewBox="0 0 62 62" fill="none" xmlns="http://www.w3.org/2000/svg">
<g clip-path="url(#clip0_177_1117)">
<path d="M53.0908 29.5303C52.9657 29.0633 52.4857 28.7857 52.0182 28.911C51.5508 29.0363 51.2743 29.5165 51.3995 29.9835C52.9069 35.6092 50.3077 41.412 45.1956 44.0427L44.503 41.458C48.5727 39.157 50.7458 34.3111 49.481 29.5909L46.0818 16.905C44.5823 11.3088 38.81 7.97578 33.2138 9.47528C27.6171 10.9749 24.2847 16.7476 25.7842 22.3438L29.1833 35.0296C30.4481 39.7499 34.7535 42.8598 39.4285 42.8177L40.121 45.4024C34.3775 45.6805 29.2263 41.9554 27.7185 36.3282C27.5934 35.8612 27.1136 35.5842 26.6461 35.7095C26.1786 35.8347 25.9021 36.3144 26.0272 36.7814C27.7836 43.3363 33.8666 47.6317 40.583 47.1267L41.1008 49.059L37.7176 49.9656C35.3865 50.5902 33.9973 52.9956 34.6221 55.3272C34.7472 55.7942 35.227 56.0712 35.6945 55.946L54.3008 50.9604C54.7683 50.8352 55.0448 50.3555 54.9197 49.8885C54.295 47.5569 51.8896 46.1682 49.558 46.7929L46.1753 47.6993L45.6574 45.7665C51.7261 42.8458 54.8467 36.0832 53.0908 29.5303ZM31.1439 35.4109L35.3305 34.2891C35.7979 34.1639 36.0748 33.6836 35.9497 33.2166C35.8246 32.7496 35.3447 32.4725 34.8773 32.5978L30.6486 33.7308L29.9688 31.1936L34.1974 30.0605C34.6649 29.9353 34.9418 29.4549 34.8167 28.9879C34.6915 28.5209 34.2116 28.2434 33.7441 28.3687L29.5155 29.5017L28.8357 26.965L33.0643 25.8319C33.5318 25.7067 33.8087 25.2263 33.6836 24.7593C33.5585 24.2923 33.0785 24.0148 32.611 24.1401L28.3824 25.2731L27.7026 22.7359L31.9312 21.6028C32.3986 21.4776 32.6757 20.9977 32.5505 20.5307C32.4254 20.0637 31.9454 19.7862 31.478 19.9115L27.2915 21.0332C26.5738 16.6513 29.2895 12.3401 33.6671 11.1671C38.0448 9.99412 42.5523 12.3699 44.1217 16.5236L39.9352 17.6454C39.4677 17.7706 39.1908 18.2509 39.3159 18.7179C39.4411 19.1849 39.9209 19.462 40.3884 19.3367L44.617 18.2037L45.2969 20.7409L41.0682 21.874C40.6008 21.9992 40.3239 22.4796 40.449 22.9466C40.5741 23.4135 41.0541 23.6911 41.5216 23.5658L45.7502 22.4328L46.4299 24.9695L42.2013 26.1026C41.7338 26.2278 41.4569 26.7082 41.582 27.1752C41.7072 27.6422 42.1871 27.9197 42.6546 27.7944L46.8832 26.6614L47.5631 29.1986L43.3345 30.3317C42.867 30.4569 42.59 30.9368 42.7151 31.4038C42.8402 31.8708 43.3202 32.1483 43.7877 32.023L47.9742 30.9013C48.6069 34.7629 46.5714 38.5677 43.0831 40.2202L43.0817 40.2206C42.6117 40.443 42.1178 40.6282 41.5985 40.7674C37.2208 41.9404 32.7134 39.5646 31.1439 35.4109ZM50.0112 48.4843C51.1141 48.1888 52.2439 48.6438 52.8571 49.535L36.2316 53.9898C36.3171 52.9114 37.0684 51.9523 38.1708 51.6569L42.3994 50.5238C42.8669 50.3986 43.144 49.9187 43.0188 49.4518L41.1957 42.6476C41.4806 42.5962 41.7663 42.5357 42.0513 42.4593C42.3364 42.383 42.614 42.2925 42.887 42.1945L44.7102 48.9986C44.8353 49.4656 45.3151 49.7426 45.7826 49.6173L50.0112 48.4843Z" fill="#8F8953"/>
<path d="M41.3352 7.40881C42.1201 7.42878 42.8532 7.68515 43.4566 8.15005C44.0658 8.6196 44.5032 9.27056 44.7198 10.0325C44.851 10.4932 45.3277 10.7623 45.7889 10.6387L45.8019 10.6352C46.2665 10.503 46.5365 10.0183 46.4041 9.55322C46.0839 8.4279 45.4344 7.46344 44.5264 6.76328C43.6263 6.06978 42.5375 5.68779 41.3798 5.65877C40.8973 5.64696 40.4956 6.029 40.4823 6.51181C40.4701 6.99485 40.8522 7.39664 41.3352 7.40881Z" fill="#8F8953"/>
<path d="M46.6715 3.97784C45.0633 2.73966 43.0589 2.0848 41.0279 2.13367C40.5455 2.14726 40.1624 2.54661 40.1743 3.03045C40.1861 3.51382 40.5878 3.89632 41.0707 3.88467C42.7259 3.84418 44.2925 4.35596 45.6023 5.36497C46.8311 6.31167 47.7009 7.6087 48.1192 9.11542C48.2475 9.57896 48.7251 9.85141 49.1892 9.72706L49.1965 9.72512C49.6624 9.59611 49.9356 9.11367 49.8065 8.64722C49.2865 6.77252 48.2024 5.1579 46.6715 3.97784Z" fill="#8F8953"/>
<path d="M14.9248 10.109L13.1007 13.2705C12.8586 13.6891 13.0022 14.2248 13.4211 14.4663C13.6304 14.5871 13.8689 14.6119 14.0852 14.5539C14.3015 14.496 14.4961 14.3551 14.6169 14.1459L16.4415 10.9842C16.6831 10.5658 16.5395 10.0301 16.1211 9.78844C15.7021 9.54697 15.1669 9.69038 14.9248 10.109Z" fill="#8F8953"/>
<path d="M11.2749 16.4316L9.44985 19.5934C9.20776 20.012 9.35118 20.5472 9.77027 20.7892C9.97951 20.91 10.218 20.9348 10.4343 20.8768C10.6506 20.8189 10.8453 20.678 10.9661 20.4688L12.7911 17.307C13.0332 16.8884 12.8898 16.3532 12.4707 16.1112C12.0522 15.8696 11.517 16.013 11.2749 16.4316Z" fill="#8F8953"/>
<path d="M8.6412 11.7926C8.22272 11.551 7.68701 11.6946 7.4454 12.113C7.20344 12.5321 7.34685 13.0674 7.76582 13.3088L10.9272 15.1345C11.137 15.2552 11.3754 15.28 11.5918 15.222C11.8081 15.164 12.0022 15.0233 12.123 14.8141C12.365 14.395 12.2216 13.8598 11.8026 13.6183L8.6412 11.7926Z" fill="#8F8953"/>
<path d="M14.9646 15.443C14.5456 15.2015 14.0104 15.3449 13.7688 15.7634C13.5267 16.182 13.6702 16.7177 14.0892 16.9592L17.2497 18.7851C17.4594 18.9058 17.6979 18.9306 17.9142 18.8726C18.1305 18.8147 18.3246 18.674 18.4459 18.4646C18.6875 18.0461 18.544 17.5104 18.1255 17.2688L14.9646 15.443Z" fill="#8F8953"/>
<path d="M11.5891 37.0244C9.72306 37.5245 8.61257 39.4486 9.11245 41.3142C9.6122 43.1792 11.536 44.2904 13.402 43.7903C15.2676 43.2905 16.3781 41.3663 15.8783 39.5012C15.3784 37.6357 13.4547 36.5246 11.5891 37.0244ZM12.9488 42.099C12.0163 42.3489 11.0537 41.7935 10.8038 40.861C10.5538 39.9279 11.1099 38.9662 12.0424 38.7163C12.9745 38.4665 13.937 39.0214 14.187 39.9544C14.4369 40.887 13.8809 41.8492 12.9488 42.099Z" fill="#8F8953"/>
<path d="M19.1931 28.1888C19.3808 28.8895 18.9649 29.6099 18.2642 29.7977C17.5635 29.9854 16.8436 29.5694 16.6558 28.8687C16.468 28.1679 16.8836 27.4482 17.5843 27.2604C18.2851 27.0726 19.0053 27.4881 19.1931 28.1888Z" fill="#8F8953"/>
</g>
<defs>
<clipPath id="clip0_177_1117">
<rect width="50" height="50" fill="white" transform="translate(0 13.1021) scale(1.01245) rotate(-15)"/>
</clipPath>
</defs>
</svg>
