<svg width="25" height="25" viewBox="0 0 25 25" fill="none" xmlns="http://www.w3.org/2000/svg">
<g clip-path="url(#clip0_178_2270)">
<path fill-rule="evenodd" clip-rule="evenodd" d="M20.7902 4.17558C18.5975 1.98032 15.6814 0.770819 12.5747 0.769531C6.1732 0.769531 0.963274 5.97931 0.960699 12.3826C0.959841 14.4295 1.49457 16.4276 2.51094 18.1889L0.863281 24.207L7.02006 22.592C8.7165 23.5174 10.6264 24.005 12.57 24.0056H12.5749C18.9757 24.0056 24.1862 18.7954 24.1886 12.3919C24.1899 9.28851 22.983 6.3707 20.7902 4.17558ZM12.5747 22.0442H12.5707C10.8387 22.0435 9.13993 21.578 7.65764 20.6987L7.3053 20.4894L3.65178 21.4479L4.62696 17.8857L4.39736 17.5205C3.43105 15.9836 2.92079 14.2072 2.92164 12.3833C2.92365 7.06106 7.25409 2.73105 12.5786 2.73105C15.157 2.73191 17.5807 3.73727 19.4031 5.56189C21.2256 7.3865 22.2287 9.81179 22.2278 12.3911C22.2255 17.7138 17.8954 22.0442 12.5747 22.0442ZM17.8696 14.8146C17.5795 14.6692 16.1527 13.9674 15.8867 13.8704C15.6209 13.7736 15.4272 13.7254 15.2339 14.0158C15.0404 14.3062 14.4843 14.9599 14.315 15.1535C14.1456 15.3472 13.9765 15.3715 13.6862 15.2261C13.396 15.0809 12.461 14.7744 11.3525 13.7858C10.4899 13.0163 9.90755 12.066 9.73817 11.7756C9.56909 11.4849 9.73674 11.343 9.86549 11.1834C10.1796 10.7933 10.4942 10.3843 10.5909 10.1907C10.6877 9.99704 10.6393 9.82753 10.5666 9.68233C10.4942 9.53713 9.91384 8.10877 9.67208 7.52755C9.43634 6.96193 9.1973 7.03832 9.01906 7.02945C8.84997 7.02101 8.65642 7.01929 8.46287 7.01929C8.26947 7.01929 7.95504 7.09182 7.68897 7.3825C7.42303 7.67304 6.67345 8.37499 6.67345 9.80335C6.67345 11.2317 7.71329 12.6116 7.85834 12.8053C8.00339 12.999 9.90469 15.9301 12.8156 17.1869C13.508 17.4862 14.0484 17.6646 14.47 17.7983C15.1652 18.0192 15.7977 17.988 16.2978 17.9133C16.8554 17.83 18.0145 17.2113 18.2566 16.5335C18.4983 15.8556 18.4983 15.2746 18.4257 15.1535C18.3533 15.0324 18.1597 14.9599 17.8696 14.8146Z" fill="white"/>
</g>
<defs>
<clipPath id="clip0_178_2270">
<rect width="25" height="25" fill="white"/>
</clipPath>
</defs>
</svg>
