<svg width="62" height="62" viewBox="0 0 62 62" fill="none" xmlns="http://www.w3.org/2000/svg">
<g clip-path="url(#clip0_177_1127)">
<path d="M17.1672 9.2782L18.6953 9.68764L18.2859 11.2157L16.7578 10.8063L17.1672 9.2782Z" fill="#8F8953"/>
<path d="M20.2234 10.0969L21.7514 10.5063L21.342 12.0344L19.8139 11.6249L20.2234 10.0969Z" fill="#8F8953"/>
<path d="M23.2795 10.916L24.8076 11.3255L24.3982 12.8535L22.8701 12.4441L23.2795 10.916Z" fill="#8F8953"/>
<path d="M25.0524 19.5799L15.8841 17.1233C15.6815 17.069 15.4656 17.0974 15.2839 17.2023C15.1022 17.3072 14.9697 17.48 14.9154 17.6826L12.8682 25.3229C12.8139 25.5255 12.8423 25.7414 12.9472 25.9231C13.0521 26.1048 13.2248 26.2373 13.4275 26.2916L22.5958 28.7483C22.7984 28.8026 23.0143 28.7742 23.196 28.6693C23.3777 28.5644 23.5103 28.3916 23.5645 28.189L25.6118 20.5487C25.6661 20.3461 25.6376 20.1302 25.5327 19.9485C25.4278 19.7668 25.2551 19.6342 25.0524 19.5799ZM22.2412 27.0155L14.6009 24.9683L16.2387 18.8561L23.879 20.9033L22.2412 27.0155Z" fill="#8F8953"/>
<path d="M28.8723 20.6031L31.9284 21.4219L31.5189 22.95L28.4628 22.1311L28.8723 20.6031Z" fill="#8F8953"/>
<path d="M33.4565 21.8315L45.6809 25.1071L45.2715 26.6351L33.047 23.3596L33.4565 21.8315Z" fill="#8F8953"/>
<path d="M28.0536 23.6592L44.8622 28.1631L44.4528 29.6911L27.6442 25.1873L28.0536 23.6592Z" fill="#8F8953"/>
<path d="M27.2344 26.7154L34.8747 28.7626L34.4653 30.2906L26.825 28.2434L27.2344 26.7154Z" fill="#8F8953"/>
<path d="M36.4029 29.1723L40.9871 30.4007L40.5776 31.9287L35.9934 30.7004L36.4029 29.1723Z" fill="#8F8953"/>
<path d="M11.8444 29.1427L22.5408 32.0088L22.1314 33.5368L11.435 30.6707L11.8444 29.1427Z" fill="#8F8953"/>
<path d="M11.0253 32.1988L21.7217 35.0649L21.3122 36.593L10.6158 33.7269L11.0253 32.1988Z" fill="#8F8953"/>
<path d="M10.2066 35.255L20.903 38.1211L20.4936 39.6491L9.79717 36.783L10.2066 35.255Z" fill="#8F8953"/>
<path d="M9.38795 38.3111L20.0843 41.1772L19.6749 42.7053L8.97851 39.8392L9.38795 38.3111Z" fill="#8F8953"/>
<path d="M54.2713 26.6645C53.7845 26.1664 53.1717 25.8096 52.4982 25.6323C51.8246 25.455 51.1156 25.4638 50.4466 25.6577L52.517 17.9311C52.6799 17.3232 52.5946 16.6755 52.2799 16.1305C51.9653 15.5855 51.447 15.1878 50.8391 15.0249L15.6938 5.60772C15.0859 5.44483 14.4382 5.53011 13.8931 5.84478C13.3481 6.15945 12.9504 6.67774 12.7875 7.28564L3.37036 42.4309C3.20747 43.0388 3.29275 43.6865 3.60742 44.2316C3.92209 44.7766 4.44038 45.1743 5.04828 45.3372L40.1936 54.7543C40.8015 54.9172 41.4492 54.832 41.9942 54.5173C42.5392 54.2026 42.9369 53.6843 43.0998 53.0764L46.6311 39.8977L54.2712 32.2575C55.0119 31.5153 55.4279 30.5096 55.4279 29.461C55.4279 28.4125 55.012 27.4067 54.2713 26.6645ZM32.954 44.6257L24.6681 42.4055L26.7153 34.7652L37.6478 37.6946L34.6956 40.6474C34.585 40.7576 34.5097 40.8982 34.4793 41.0513L33.9657 43.616L32.954 44.6257ZM33.5769 46.2404L34.6955 45.1218L35.8141 46.2404L34.6955 47.359C34.5468 47.5057 34.3461 47.5876 34.1373 47.5869C33.9284 47.5862 33.7283 47.503 33.5806 47.3553C33.4329 47.2076 33.3496 47.0074 33.3489 46.7986C33.3482 46.5897 33.4302 46.389 33.5769 46.2404ZM37.1931 45.3816L35.5539 43.7427L35.9276 41.8775L39.0568 45.0089L37.1931 45.3816ZM40.2893 44.0002L39.1707 42.8816L47.5603 34.4923L46.4417 33.3737L38.0522 41.763L36.9336 40.6444L46.4417 31.1365L49.8005 34.4931L40.2893 44.0002ZM47.5573 30.0171L48.1164 29.4586L51.4751 32.8152L50.9158 33.3745L47.5573 30.0171ZM15.2843 7.13578L50.4296 16.5529C50.6323 16.6072 50.805 16.7398 50.9099 16.9215C51.0148 17.1031 51.0432 17.319 50.9889 17.5217L49.9588 21.3663L13.2854 11.5397L14.3156 7.69508C14.3699 7.49245 14.5024 7.31969 14.6841 7.2148C14.8658 7.10991 15.0817 7.08148 15.2843 7.13578ZM41.5718 52.667C41.5175 52.8696 41.3849 53.0424 41.2032 53.1473C41.0216 53.2522 40.8057 53.2806 40.603 53.2263L5.45772 43.8091C5.25509 43.7548 5.08233 43.6223 4.97744 43.4406C4.87255 43.2589 4.84412 43.043 4.89842 42.8404L12.876 13.0677L49.5493 22.8943L48.4881 26.855L38.9397 36.4029L26.3608 33.0324C26.1581 32.9781 25.9422 33.0066 25.7606 33.1114C25.5789 33.2163 25.4463 33.3891 25.392 33.5917L22.9354 42.7601C22.8811 42.9627 22.9095 43.1786 23.0144 43.3603C23.1193 43.542 23.292 43.6745 23.4947 43.7288L31.9143 45.9848C31.731 46.4915 31.7256 47.0454 31.8989 47.5555C32.0722 48.0656 32.4139 48.5015 32.8679 48.7916C33.3218 49.0817 33.861 49.2087 34.3967 49.1517C34.9325 49.0947 35.4328 48.8571 35.8156 48.478L37.3237 46.9692L39.885 46.4566C40.0387 46.4254 40.1797 46.3492 40.29 46.2376L44.3938 42.1349L41.5718 52.667ZM53.1542 31.1393L52.5949 31.6986L49.2361 28.3419L49.7954 27.7827C50.2405 27.3373 50.8443 27.0869 51.474 27.0867C52.1037 27.0865 52.7077 27.3365 53.1531 27.7816C53.5985 28.2267 53.8488 28.8305 53.849 29.4602C53.8492 30.0899 53.5993 30.6939 53.1542 31.1393Z" fill="#8F8953"/>
</g>
<defs>
<clipPath id="clip0_177_1127">
<rect width="50" height="50" fill="white" transform="translate(13.1021) scale(1.01245) rotate(15)"/>
</clipPath>
</defs>
</svg>
