<svg width="50" height="50" viewBox="0 0 50 50" fill="none" xmlns="http://www.w3.org/2000/svg">
<path d="M21.875 23.4375H16.75C16.4773 22.9652 16.0858 22.5725 15.6143 22.2984C15.1429 22.0242 14.6079 21.8783 14.0625 21.875C13.2337 21.875 12.4388 22.2042 11.8528 22.7903C11.2667 23.3763 10.9375 24.1712 10.9375 25C10.9375 25.8288 11.2667 26.6237 11.8528 27.2097C12.4388 27.7958 13.2337 28.125 14.0625 28.125C14.6079 28.1217 15.1429 27.9758 15.6143 27.7016C16.0858 27.4275 16.4773 27.0348 16.75 26.5625H21.875C22.2894 26.5625 22.6868 26.3979 22.9799 26.1049C23.2729 25.8118 23.4375 25.4144 23.4375 25C23.4375 24.5856 23.2729 24.1882 22.9799 23.8951C22.6868 23.6021 22.2894 23.4375 21.875 23.4375Z" fill="white"/>
<path d="M25.7813 31.7654C26.9689 31.0797 27.9551 30.0935 28.6407 28.9058C29.3263 27.7182 29.6873 26.3711 29.6873 24.9998C29.6873 23.6285 29.3263 22.2813 28.6407 21.0937C27.9551 19.9061 26.9689 18.9199 25.7813 18.2341C25.4243 18.0473 25.0088 18.0057 24.6217 18.118C24.2347 18.2303 23.906 18.4878 23.7043 18.8367C23.5026 19.1856 23.4436 19.599 23.5395 19.9904C23.6353 20.3818 23.8787 20.7211 24.2188 20.9373C24.9329 21.3483 25.5259 21.9402 25.9383 22.6534C26.3507 23.3666 26.5678 24.1759 26.5678 24.9998C26.5678 25.8236 26.3507 26.6329 25.9383 27.3461C25.5259 28.0593 24.9329 28.6513 24.2188 29.0623C24.0348 29.1656 23.8735 29.3051 23.7448 29.4724C23.6161 29.6397 23.5227 29.8314 23.4701 30.0358C23.4176 30.2402 23.407 30.4532 23.439 30.6619C23.471 30.8705 23.5449 31.0705 23.6563 31.2498C23.7927 31.4859 23.9884 31.6823 24.2242 31.8193C24.4599 31.9564 24.7274 32.0294 25.0001 32.031C25.2796 32.0141 25.5494 31.9223 25.7813 31.7654Z" fill="white"/>
<path d="M27.2344 36.2965C29.3733 35.2834 31.1806 33.684 32.4462 31.6842C33.7118 29.6843 34.3837 27.3663 34.3837 24.9996C34.3837 22.633 33.7118 20.315 32.4462 18.3151C31.1806 16.3153 29.3733 14.7158 27.2344 13.7028C26.8594 13.5246 26.4289 13.5027 26.0378 13.6419C25.6466 13.781 25.3267 14.0699 25.1485 14.445C24.9703 14.82 24.9484 15.2505 25.0876 15.6416C25.2268 16.0328 25.5156 16.3527 25.8907 16.5309C27.4927 17.2916 28.8461 18.4911 29.7937 19.9901C30.7414 21.4891 31.2444 23.2262 31.2444 24.9996C31.2444 26.7731 30.7414 28.5102 29.7937 30.0092C28.8461 31.5082 27.4927 32.7077 25.8907 33.4684C25.564 33.6171 25.2985 33.8738 25.1387 34.1953C24.979 34.5168 24.9349 34.8834 25.0137 35.2336C25.0926 35.5838 25.2896 35.8962 25.5717 36.1182C25.8537 36.3403 26.2036 36.4584 26.5626 36.4528C26.7949 36.4475 27.0236 36.3943 27.2344 36.2965Z" fill="white"/>
<path d="M28.7502 9.24977C28.5606 9.15468 28.3536 9.0992 28.1419 9.0867C27.9301 9.0742 27.718 9.10495 27.5185 9.17707C27.3191 9.2492 27.1364 9.36118 26.9816 9.5062C26.8267 9.65123 26.7031 9.82625 26.6181 10.0206C26.5332 10.215 26.4887 10.4246 26.4873 10.6367C26.486 10.8488 26.5279 11.059 26.6104 11.2544C26.6929 11.4498 26.8144 11.6264 26.9674 11.7733C27.1204 11.9203 27.3017 12.0345 27.5002 12.1091C30.0093 13.203 32.1445 15.0054 33.6442 17.2952C35.1438 19.585 35.9426 22.2626 35.9426 24.9998C35.9426 27.7369 35.1438 30.4146 33.6442 32.7043C32.1445 34.9941 30.0093 36.7965 27.5002 37.8904C27.311 37.9719 27.1398 38.0901 26.9964 38.2381C26.8531 38.386 26.7404 38.5609 26.6649 38.7526C26.5894 38.9443 26.5525 39.149 26.5564 39.355C26.5603 39.561 26.605 39.7642 26.6877 39.9529C26.8097 40.2324 27.0108 40.4701 27.2662 40.6367C27.5217 40.8032 27.8203 40.8915 28.1252 40.8904C28.341 40.8872 28.5538 40.8393 28.7502 40.7498C31.8138 39.4113 34.4205 37.2085 36.2511 34.411C38.0817 31.6136 39.0568 28.343 39.0568 24.9998C39.0568 21.6566 38.0817 18.386 36.2511 15.5885C34.4205 12.791 31.8138 10.5882 28.7502 9.24977Z" fill="white"/>
</svg>
