<svg width="50" height="50" viewBox="0 0 50 50" fill="none" xmlns="http://www.w3.org/2000/svg">
<g clip-path="url(#clip0_177_1406)">
<path d="M25 12.3047C18.8075 12.3047 13.7695 17.3427 13.7695 23.5352C13.7695 26.5027 14.927 29.2046 16.8135 31.2145C17.1009 30.1849 17.5823 29.2103 18.2418 28.3458C17.2722 26.9876 16.6992 25.3275 16.6992 23.5352C16.6992 18.9581 20.4229 15.2344 25 15.2344C29.5771 15.2344 33.3008 18.9581 33.3008 23.5352C33.3008 25.3275 32.7278 26.9876 31.7582 28.3459C32.4177 29.2104 32.8991 30.1849 33.1865 31.2146C35.073 29.2046 36.2305 26.5027 36.2305 23.5352C36.2305 17.3427 31.1925 12.3047 25 12.3047Z" fill="white"/>
<path d="M25 6.44531C15.5767 6.44531 7.91016 14.1118 7.91016 23.5352C7.91016 30.1339 11.6698 35.8705 17.1593 38.7171L16.62 34.9419C13.1172 32.3616 10.8398 28.2096 10.8398 23.5352C10.8398 15.7272 17.1921 9.375 25 9.375C32.8079 9.375 39.1602 15.7272 39.1602 23.5352C39.1602 28.2096 36.8828 32.3616 33.38 34.9419L32.8407 38.7171C38.3302 35.8705 42.0898 30.1339 42.0898 23.5352C42.0898 14.1118 34.4233 6.44531 25 6.44531Z" fill="white"/>
<path d="M39.7461 0H10.2539C4.5999 0 0 4.5999 0 10.2539V39.7461C0 45.4001 4.5999 50 10.2539 50H39.7461C45.4001 50 50 45.4001 50 39.7461V10.2539C50 4.5999 45.4001 0 39.7461 0ZM47.0703 39.7461C47.0703 43.7847 43.7847 47.0703 39.7461 47.0703H10.2539C6.21533 47.0703 2.92969 43.7847 2.92969 39.7461V10.2539C2.92969 6.21533 6.21533 2.92969 10.2539 2.92969H39.7461C43.7847 2.92969 47.0703 6.21533 47.0703 10.2539V39.7461Z" fill="white"/>
<path d="M25 18.1641C22.5769 18.1641 20.6055 20.1354 20.6055 22.5586C20.6055 24.9817 22.5769 26.9531 25 26.9531C27.4231 26.9531 29.3945 24.9817 29.3945 22.5586C29.3945 20.1354 27.4231 18.1641 25 18.1641ZM25 24.0234C24.1923 24.0234 23.5352 23.3663 23.5352 22.5586C23.5352 21.7509 24.1923 21.0938 25 21.0938C25.8077 21.0938 26.4648 21.7509 26.4648 22.5586C26.4648 23.3663 25.8077 24.0234 25 24.0234Z" fill="white"/>
<path d="M29.9456 29.2104C28.7015 27.7759 26.8989 26.9531 24.9999 26.9531C23.101 26.9531 21.2984 27.7759 20.0542 29.2104C18.81 30.6449 18.2505 32.5458 18.5191 34.4256L19.2842 39.7816C19.5915 41.9326 21.4617 43.5547 23.6346 43.5547H26.3653C28.5381 43.5547 30.4083 41.9326 30.7156 39.7816L31.4808 34.4257C31.7493 32.5458 31.1898 30.6449 29.9456 29.2104ZM28.5807 34.0113L27.8155 39.3673C27.7131 40.0843 27.0897 40.625 26.3654 40.625H23.6347C22.9104 40.625 22.2869 40.0844 22.1845 39.3674L21.4194 34.0113C21.271 32.9728 21.5801 31.9226 22.2675 31.13C22.9549 30.3374 23.9508 29.8828 24.9999 29.8828C26.049 29.8828 27.0449 30.3374 27.7325 31.13C28.4199 31.9225 28.729 32.9728 28.5807 34.0113Z" fill="white"/>
</g>
<defs>
<clipPath id="clip0_177_1406">
<rect width="50" height="50" fill="white"/>
</clipPath>
</defs>
</svg>
