<svg width="30" height="30" viewBox="0 0 30 30" fill="none" xmlns="http://www.w3.org/2000/svg">
<g clip-path="url(#clip0_178_2110)">
<path d="M26.8433 7.89368C26.2219 8.19427 25.9619 8.94196 26.2625 9.56299C27.0837 11.2595 27.5 13.0881 27.5 15C27.5 21.8924 21.8924 27.5 15 27.5C8.1076 27.5 2.5 21.8924 2.5 15C2.5 8.1076 8.1076 2.5 15 2.5C17.8561 2.5 20.5392 3.43262 22.76 5.19684C23.2986 5.62683 24.0863 5.5368 24.5163 4.99634C24.9463 4.45618 24.8563 3.66943 24.3155 3.24005C21.6864 1.15051 18.378 0 15 0C6.72943 0 0 6.72943 0 15C0 23.2706 6.72943 30 15 30C23.2706 30 30 23.2706 30 15C30 12.7081 29.4995 10.5118 28.5126 8.47443C28.2126 7.85187 27.4625 7.59247 26.8433 7.89368Z" fill="#20DAF1"/>
<path d="M15 5C14.31 5 13.75 5.56 13.75 6.25V15C13.75 15.69 14.31 16.25 15 16.25H21.25C21.94 16.25 22.5 15.69 22.5 15C22.5 14.31 21.94 13.75 21.25 13.75H16.25V6.25C16.25 5.56 15.69 5 15 5Z" fill="#20DAF1"/>
</g>
<defs>
<clipPath id="clip0_178_2110">
<rect width="30" height="30" fill="white"/>
</clipPath>
</defs>
</svg>
